<?xml version="1.0" encoding="iso-8859-1"?>
<!-- Uploaded to: SVG Repo, www.svgrepo.com, Generator: SVG Repo Mixer Tools -->
<!DOCTYPE svg PUBLIC "-//W3C//DTD SVG 1.1//EN" "http://www.w3.org/Graphics/SVG/1.1/DTD/svg11.dtd">
<svg fill="#000000" version="1.1" id="Capa_1" xmlns="http://www.w3.org/2000/svg" xmlns:xlink="http://www.w3.org/1999/xlink" 
	 width="800px" height="800px" viewBox="0 0 580.259 580.259"
	 xml:space="preserve">
<g>
	<g>
		<path d="M290.131,0.001C130.151,0.001,0,130.153,0,290.129s130.151,290.128,290.128,290.128s290.131-130.151,290.131-290.128
			S450.107,0.001,290.131,0.001z M391.099,512.423c4.52-7.206,8.837-14.933,12.923-23.204c9.25-18.73,17.014-39.591,23.243-61.956
			c22.362-6.229,43.223-13.99,61.953-23.24c8.271-4.085,15.997-8.406,23.204-12.923C487.969,444.714,444.713,487.97,391.099,512.423
			z M67.837,391.1c7.206,4.52,14.933,8.837,23.204,12.923c18.727,9.25,39.59,17.014,61.953,23.24
			c6.23,22.365,13.99,43.226,23.244,61.956c4.085,8.271,8.406,15.997,12.922,23.204C135.546,487.97,92.287,444.711,67.837,391.1z
			 M189.16,67.839c-4.52,7.206-8.837,14.933-12.922,23.204c-9.25,18.73-17.014,39.591-23.244,61.956
			c-22.363,6.23-43.223,13.99-61.953,23.241c-8.271,4.085-15.998,8.406-23.204,12.922C92.287,135.547,135.546,92.288,189.16,67.839z
			 M528.33,267.179h-83.779c-0.856-21.316-2.9-42.173-6.077-62.268C482.639,220.527,515.454,242.556,528.33,267.179z
			 M438.474,375.347c3.177-20.095,5.218-40.949,6.077-62.268h83.779C515.454,337.704,482.639,359.732,438.474,375.347z
			 M51.928,313.08h83.78c0.857,21.315,2.901,42.173,6.077,62.268C97.62,359.732,64.802,337.704,51.928,313.08z M141.785,204.912
			c-3.176,20.095-5.217,40.949-6.077,62.268h-83.78C64.802,242.556,97.62,220.527,141.785,204.912z M398.608,267.179h-85.527
			v-85.527c26.566,1.224,52.17,4.55,75.974,9.557C394.058,215.013,397.384,240.612,398.608,267.179z M389.055,389.053
			c-23.804,5.006-49.407,8.332-75.974,9.557v-85.53h85.527C397.384,339.646,394.058,365.247,389.055,389.053z M181.651,313.08h85.53
			v85.526c-26.567-1.224-52.17-4.55-75.974-9.556C186.201,365.247,182.875,339.646,181.651,313.08z M191.204,191.206
			c23.804-5.006,49.407-8.332,75.974-9.556v85.53h-85.527C182.875,240.612,186.201,215.013,191.204,191.206z M313.081,135.709
			V51.927c24.624,12.876,46.655,45.692,62.268,89.86C355.254,138.61,334.396,136.566,313.081,135.709z M267.181,51.927v83.783
			c-21.319,0.857-42.173,2.901-62.268,6.077C220.525,97.619,242.557,64.803,267.181,51.927z M267.181,444.549v83.783
			c-24.624-12.877-46.656-45.692-62.268-89.86C225.005,441.648,245.862,443.693,267.181,444.549z M313.081,528.333v-83.783
			c21.319-0.857,42.173-2.901,62.268-6.077C359.733,482.64,337.705,515.456,313.081,528.333z M489.218,176.236
			c-18.728-9.25-39.591-17.014-61.953-23.241c-6.229-22.366-13.99-43.226-23.243-61.956c-4.086-8.271-8.406-15.998-12.923-23.204
			c53.614,24.45,96.87,67.709,121.32,121.323C505.212,184.642,497.485,180.321,489.218,176.236z"/>
	</g>
</g>
</svg>