<svg xmlns="http://www.w3.org/2000/svg" xml:space="preserve" width="800px" height="800px" viewBox="0 0 580.259 580.259"><path d="M290.131.001C130.151.001 0 130.153 0 290.129s130.151 290.128 290.128 290.128 290.131-130.151 290.131-290.128S450.107.001 290.131.001m100.968 512.422c4.52-7.206 8.837-14.933 12.923-23.204 9.25-18.73 17.014-39.591 23.243-61.956 22.362-6.229 43.223-13.99 61.953-23.24 8.271-4.085 15.997-8.406 23.204-12.923-24.453 53.614-67.709 96.87-121.323 121.323M67.837 391.1c7.206 4.52 14.933 8.837 23.204 12.923 18.727 9.25 39.59 17.014 61.953 23.24 6.23 22.365 13.99 43.226 23.244 61.956 4.085 8.271 8.406 15.997 12.922 23.204C135.546 487.97 92.287 444.711 67.837 391.1M189.16 67.839c-4.52 7.206-8.837 14.933-12.922 23.204-9.25 18.73-17.014 39.591-23.244 61.956-22.363 6.23-43.223 13.99-61.953 23.241-8.271 4.085-15.998 8.406-23.204 12.922 24.45-53.615 67.709-96.874 121.323-121.323m339.17 199.34h-83.779c-.856-21.316-2.9-42.173-6.077-62.268 44.165 15.616 76.98 37.645 89.856 62.268m-89.856 108.168c3.177-20.095 5.218-40.949 6.077-62.268h83.779c-12.876 24.625-45.691 46.653-89.856 62.268M51.928 313.08h83.78c.857 21.315 2.901 42.173 6.077 62.268-44.165-15.616-76.983-37.644-89.857-62.268m89.857-108.168c-3.176 20.095-5.217 40.949-6.077 62.268h-83.78c12.874-24.624 45.692-46.653 89.857-62.268m256.823 62.267h-85.527v-85.527c26.566 1.224 52.17 4.55 75.974 9.557 5.003 23.804 8.329 49.403 9.553 75.97m-9.553 121.874c-23.804 5.006-49.407 8.332-75.974 9.557v-85.53h85.527c-1.224 26.566-4.55 52.167-9.553 75.973M181.651 313.08h85.53v85.526c-26.567-1.224-52.17-4.55-75.974-9.556-5.006-23.803-8.332-49.404-9.556-75.97m9.553-121.874c23.804-5.006 49.407-8.332 75.974-9.556v85.53h-85.527c1.224-26.568 4.55-52.167 9.553-75.974m121.877-55.497V51.927c24.624 12.876 46.655 45.692 62.268 89.86-20.095-3.177-40.953-5.221-62.268-6.078m-45.9-83.782v83.783c-21.319.857-42.173 2.901-62.268 6.077 15.612-44.168 37.644-76.984 62.268-89.86m0 392.622v83.783c-24.624-12.877-46.656-45.692-62.268-89.86 20.092 3.176 40.949 5.221 62.268 6.077m45.9 83.784V444.55c21.319-.857 42.173-2.901 62.268-6.077-15.616 44.167-37.644 76.983-62.268 89.86m176.137-352.097c-18.728-9.25-39.591-17.014-61.953-23.241-6.229-22.366-13.99-43.226-23.243-61.956-4.086-8.271-8.406-15.998-12.923-23.204 53.614 24.45 96.87 67.709 121.32 121.323-7.207-4.516-14.934-8.837-23.201-12.922"/></svg>