<svg xmlns="http://www.w3.org/2000/svg" xml:space="preserve" width="800px" height="800px" viewBox="0 0 32 32"><path d="M29.7 16c0-1.9-2.2-3.5-5.7-4.5.9-3.5.6-6.2-1-7.2-.4-.2-.8-.3-1.3-.3-1.5 0-3.5 1.1-5.5 3-2-1.9-3.9-3-5.5-3-.5 0-.9.1-1.3.3-1.5 1-1.8 3.7-1 7.2-3.4 1-5.7 2.7-5.7 4.5 0 1.9 2.2 3.5 5.7 4.5-.8 3.5-.5 6.3 1.1 7.2.4.2.8.3 1.3.3 1.5 0 3.5-1.1 5.5-3 2 1.9 3.9 3 5.5 3 .5 0 .9-.1 1.3-.3 1.6-.9 1.9-3.7 1.1-7.2 3.3-1 5.5-2.7 5.5-4.5m-8-10.7c.3 0 .5 0 .6.2.8.4 1.1 2 .8 4.1-.1.5-.2 1.1-.3 1.6-1.1-.3-2.2-.4-3.5-.6-.7-1-1.4-1.9-2.2-2.7 1.8-1.7 3.5-2.6 4.6-2.6m-1.8 12.8c-.4.7-.8 1.4-1.3 2-.8.1-1.6.1-2.4.1s-1.6 0-2.4-.1c-.4-.6-.8-1.3-1.3-2-.4-.7-.8-1.4-1.1-2.1.3-.7.7-1.4 1.1-2.1s.9-1.4 1.3-2.1c.8-.1 1.6-.1 2.4-.1s1.6 0 2.4.1c.4.6.9 1.3 1.3 2.1.4.7.8 1.4 1.1 2.1-.3.7-.7 1.4-1.1 2.1m1.8-.6c.3.7.5 1.4.7 2-.7.2-1.4.3-2.1.4.2-.4.5-.8.7-1.2.3-.3.5-.8.7-1.2m-5.5 5.7c-.5-.5-1-1.1-1.4-1.7h2.8c-.4.6-.9 1.2-1.4 1.7M12.1 20c-.7-.1-1.4-.2-2.1-.4.2-.7.5-1.4.7-2 .2.4.4.8.7 1.2s.5.8.7 1.2m-1.4-5.5c-.3-.7-.5-1.4-.8-2.1.7-.2 1.4-.3 2.2-.4-.3.4-.5.8-.8 1.2-.1.5-.3.9-.6 1.3m5.5-5.7c.5.5.9 1.1 1.4 1.6h-2.8c.5-.5 1-1.1 1.4-1.6m4.8 4.4c-.3-.4-.5-.8-.8-1.2.8.1 1.5.2 2.2.4-.2.7-.5 1.4-.8 2.1-.1-.4-.3-.8-.6-1.3M9.4 9.5c-.3-2.1 0-3.6.8-4.1.2-.1.4-.2.6-.2 1.1 0 2.7.9 4.5 2.6-.7.8-1.5 1.7-2.2 2.7-1.2.1-2.4.3-3.5.6-.1-.5-.2-1.1-.2-1.6m-2.2 9.2C5.3 17.9 4 16.8 4 16c0-.9 1.2-1.9 3.1-2.7.5-.2 1-.4 1.6-.5.3 1.1.7 2.2 1.3 3.3-.5 1.1-.9 2.2-1.2 3.2-.6-.2-1.1-.4-1.6-.6m2.9 7.9c-.8-.4-1.1-2-.8-4.1.1-.5.2-1.1.3-1.7 1.1.2 2.2.4 3.4.5.7 1 1.5 1.9 2.2 2.7-1.8 1.7-3.4 2.6-4.5 2.6-.2.1-.4 0-.6 0m13-4.1c.3 2.1 0 3.6-.8 4.1-.2.1-.4.2-.6.2-1.1 0-2.7-.9-4.5-2.6.8-.8 1.5-1.7 2.2-2.7 1.2-.1 2.4-.3 3.4-.5q.15.6.3 1.5m2.2-3.8c-.5.2-1 .4-1.6.5-.3-1-.7-2.1-1.2-3.2.5-1.1.9-2.2 1.3-3.3.5.2 1.1.3 1.6.5 1.9.8 3.1 1.8 3.1 2.7-.1.9-1.3 2-3.2 2.8"/><path d="M16.3 18.5c1.4 0 2.5-1.1 2.5-2.5s-1.1-2.5-2.5-2.5-2.5 1.1-2.5 2.5 1.1 2.5 2.5 2.5"/></svg>