<svg xmlns="http://www.w3.org/2000/svg" width="800px" height="800px" aria-hidden="true" viewBox="0 0 14 14"><path d="M11.33 7.673c-.42.002-.783.103-1.087.253-.11-.223-.224-.418-.243-.564-.023-.171-.047-.272-.02-.475.025-.202.144-.489.142-.51-.002-.02-.027-.123-.268-.125s-.45.047-.475.11a2.3 2.3 0 0 0-.099.358c-.043.22-.484 1.003-.733 1.412-.082-.16-.152-.3-.167-.412-.022-.171-.047-.272-.02-.475.026-.202.144-.489.142-.51-.002-.02-.026-.123-.268-.125s-.45.047-.474.11c-.025.064-.05.214-.1.358-.048.145-.635 1.45-.789 1.789a9 9 0 0 1-.195.405c-.048.093-.003.006-.007.017-.041.08-.066.125-.066.125v.002c-.032.06-.067.114-.084.114-.011 0-.036-.157.006-.373.088-.453.296-1.158.294-1.182-.002-.013.04-.135-.137-.2-.17-.063-.232.04-.247.04s-.027.038-.027.038.19-.795-.363-.795c-.345 0-.825.379-1.061.722l-.806.44-.388.214-.027-.028c-.67-.716-1.91-1.222-1.857-2.184.019-.35.14-1.27 2.382-2.388 1.837-.915 3.307-.664 3.56-.105.364.797-.785 2.28-2.694 2.493-.727.08-1.11-.2-1.205-.306-.1-.11-.114-.116-.152-.095-.062.034-.022.131 0 .19.056.147.29.41.69.54.35.115 1.203.179 2.234-.22 1.159-.446 2.06-1.69 1.796-2.73-.27-1.057-2.022-1.403-3.681-.815-.988.35-2.057.902-2.825 1.62-.913.854-1.06 1.599-1 1.91.214 1.104 1.736 1.824 2.346 2.356l-.085.047c-.305.152-1.465.759-1.756 1.4-.328.727.054 1.248.306 1.32.783.217 1.585-.175 2.016-.818s.38-1.482.18-1.865l-.007-.015.24-.14c.155-.092.307-.176.44-.25a3 3 0 0 0-.157.799c-.034.412.137.947.358 1.157a.4.4 0 0 0 .289.093c.258 0 .374-.213.504-.468.16-.312.3-.673.3-.673s-.177.978.305.978c.176 0 .353-.227.431-.343v.002l.013-.022q.03-.044.029-.045v-.006c.07-.122.226-.402.46-.863.304-.596.595-1.34.595-1.34s.026.182.116.484c.053.178.163.373.251.562-.07.098-.114.154-.114.154l.002.004q-.085.114-.186.234c-.24.285-.525.611-.562.705-.045.11-.034.193.052.257.064.048.177.056.295.047a1.3 1.3 0 0 0 .44-.102 1.5 1.5 0 0 0 .379-.198.85.85 0 0 0 .364-.746 1.6 1.6 0 0 0-.137-.529l.063-.094c.372-.541.658-1.136.658-1.136s.027.182.117.484c.045.152.133.319.213.482-.348.283-.564.61-.639.826-.139.4-.03.58.174.62.092.02.223-.024.32-.065.123-.041.269-.107.406-.208.234-.172.46-.414.446-.742a1.4 1.4 0 0 0-.101-.439c.294-.123.676-.19 1.164-.135 1.044.122 1.248.774 1.209 1.046-.04.274-.259.424-.332.469s-.096.062-.09.095c.01.05.043.047.105.036.086-.015.547-.221.568-.725.03-.638-.583-1.339-1.668-1.333zm-8.046 2.712c-.345.377-.829.52-1.037.4-.223-.13-.135-.685.29-1.086.26-.244.593-.469.814-.607l.214-.13.022-.013.055-.032c.155.57.005 1.073-.358 1.468m2.519-1.713c-.12.294-.373 1.044-.527 1.004-.131-.033-.212-.605-.026-1.167.094-.283.292-.62.41-.752.19-.212.398-.28.447-.195.065.11-.23.926-.304 1.11m2.08.993c-.05.026-.097.043-.12.03-.016-.009.021-.045.021-.045s.26-.279.364-.407q.092-.114.204-.26l.002.03c-.002.335-.324.562-.47.652M9.489 9.3c-.037-.026-.032-.115.094-.388a1.5 1.5 0 0 1 .356-.46.7.7 0 0 1 .036.203c-.002.422-.304.58-.486.645"/></svg>