<svg xmlns="http://www.w3.org/2000/svg" width="800px" height="800px" viewBox="0 0 256 256"><path d="M233.866 28.705a19.95 19.95 0 0 0-20.363-3.459L28.946 97.751a20 20 0 0 0 3.39 38.226L76 144.71v55.274a19.993 19.993 0 0 0 34.142 14.142l23.29-23.289 36.558 32.173a19.83 19.83 0 0 0 13.147 5.002 20.2 20.2 0 0 0 6.204-.984 19.83 19.83 0 0 0 13.356-14.566l37.614-164.133a19.95 19.95 0 0 0-6.445-19.624M147.913 76.8l-62.695 45.28-34.828-6.967ZM100 190.327v-28.91l15.377 13.533Zm80.804 10.228-73.588-64.758 105.966-76.53Z"/></svg>