<svg aria-hidden="true" style="position: absolute; width: 0; height: 0; overflow: hidden;" version="1.1" xmlns="http://www.w3.org/2000/svg" xmlns:xlink="http://www.w3.org/1999/xlink">
<defs>
<symbol id="icon-close" viewBox="0 0 32 32">
<path d="M32 3.223l-3.223-3.223-12.777 12.777-12.777-12.777-3.223 3.223 12.777 12.777-12.777 12.777 3.223 3.223 12.777-12.777 12.777 12.777 3.223-3.223-12.777-12.777 12.777-12.777z"></path>
</symbol>
<symbol id="icon-menu" viewBox="0 0 32 32">
<path d="M4.799 8.001c0-0.424 0.169-0.831 0.469-1.131s0.707-0.469 1.131-0.469h19.2c0.424 0 0.831 0.169 1.131 0.469s0.469 0.707 0.469 1.131-0.169 0.831-0.469 1.131c-0.3 0.3-0.707 0.469-1.131 0.469h-19.2c-0.424 0-0.831-0.169-1.131-0.469s-0.469-0.707-0.469-1.131z"></path>
<path d="M4.799 16.001c0-0.424 0.169-0.831 0.469-1.131s0.707-0.469 1.131-0.469h19.2c0.424 0 0.831 0.169 1.131 0.469s0.469 0.707 0.469 1.131c0 0.424-0.169 0.831-0.469 1.131s-0.707 0.469-1.131 0.469h-19.2c-0.424 0-0.831-0.169-1.131-0.469s-0.469-0.707-0.469-1.131z"></path>
<path d="M4.799 24.001c0-0.424 0.169-0.831 0.469-1.131s0.707-0.469 1.131-0.469h19.2c0.424 0 0.831 0.169 1.131 0.469s0.469 0.707 0.469 1.131c0 0.424-0.169 0.831-0.469 1.131s-0.707 0.469-1.131 0.469h-19.2c-0.424 0-0.831-0.169-1.131-0.469s-0.469-0.707-0.469-1.131z"></path>
</symbol>
<symbol id="icon-map" viewBox="0 0 32 32">
<path stroke-linejoin="round" stroke-linecap="round" stroke-miterlimit="4" stroke-width="3" d="M28 13.333c0 9.333-12 17.333-12 17.333s-12-8-12-17.333c0-3.183 1.264-6.235 3.515-8.485s5.303-3.515 8.485-3.515c3.183 0 6.235 1.264 8.485 3.515s3.515 5.303 3.515 8.485z"></path>
<path stroke-linejoin="round" stroke-linecap="round" stroke-miterlimit="4" stroke-width="3" d="M16 17.333c2.209 0 4-1.791 4-4s-1.791-4-4-4c-2.209 0-4 1.791-4 4s1.791 4 4 4z"></path>
</symbol>
<!-- social media -->
<symbol id="icon-whatsapp" viewBox="0 0 32 32">
<path d="M25.314 22.594c-0.386 1.092-1.918 1.994-3.141 2.258-0.837 0.178-1.928 0.319-5.605-1.205-4.13-1.711-9.864-7.806-9.864-11.861 0-2.065 1.19-4.469 3.272-4.469 1.002 0 1.222 0.019 1.552 0.81 0.386 0.931 1.326 3.227 1.438 3.462 0.462 0.965-0.47 1.53-1.147 2.37-0.216 0.253-0.461 0.527-0.187 0.997 0.272 0.461 1.213 1.994 2.595 3.225 1.786 1.591 3.234 2.098 3.752 2.314 0.386 0.16 0.846 0.123 1.128-0.178 0.357-0.386 0.8-1.026 1.251-1.657 0.318-0.451 0.723-0.507 1.147-0.347 0.286 0.099 3.926 1.789 4.080 2.060 0.114 0.197 0.114 1.128-0.272 2.22zM16.003 0h-0.008c-8.821 0-15.995 7.177-15.995 16 0 3.499 1.128 6.744 3.046 9.377l-1.994 5.946 6.149-1.965c2.53 1.674 5.549 2.642 8.802 2.642 8.821 0 15.997-7.177 15.997-16s-7.176-16-15.997-16z"></path>
</symbol>
<symbol id="icon-letter" viewBox="0 0 32 32">
<path d="M13.258 4.333h5.484c2.45-0 4.391-0 5.91 0.204 1.563 0.21 2.829 0.653 3.826 1.651s1.441 2.263 1.651 3.826c0.204 1.519 0.204 3.46 0.204 5.91v0.15c0 2.45 0 4.391-0.204 5.91-0.21 1.563-0.653 2.829-1.651 3.826s-2.263 1.441-3.826 1.651c-1.519 0.204-3.46 0.204-5.91 0.204h-5.484c-2.45 0-4.391 0-5.91-0.204-1.563-0.21-2.829-0.653-3.826-1.651s-1.441-2.263-1.651-3.826c-0.204-1.519-0.204-3.46-0.204-5.91v-0.15c-0-2.45-0-4.391 0.204-5.91 0.21-1.563 0.653-2.829 1.651-3.826s2.263-1.441 3.826-1.651c1.519-0.204 3.46-0.204 5.91-0.204zM7.614 6.52c-1.341 0.18-2.114 0.519-2.679 1.083s-0.902 1.337-1.083 2.679c-0.184 1.37-0.186 3.176-0.186 5.719s0.002 4.349 0.186 5.719c0.18 1.341 0.519 2.114 1.083 2.679s1.337 0.903 2.679 1.083c1.37 0.184 3.176 0.186 5.719 0.186h5.333c2.542 0 4.349-0.002 5.719-0.186 1.341-0.18 2.114-0.519 2.679-1.083s0.903-1.337 1.083-2.679c0.184-1.37 0.186-3.177 0.186-5.719s-0.002-4.349-0.186-5.719c-0.18-1.341-0.519-2.114-1.083-2.679s-1.337-0.902-2.679-1.083c-1.37-0.184-3.177-0.186-5.719-0.186h-5.333c-2.542 0-4.349 0.002-5.719 0.186zM7.232 10.026c0.354-0.424 0.984-0.482 1.408-0.128l2.879 2.399c1.244 1.037 2.108 1.754 2.837 2.223 0.706 0.454 1.184 0.606 1.645 0.606s0.939-0.152 1.645-0.606c0.729-0.469 1.593-1.186 2.837-2.223l2.879-2.399c0.424-0.354 1.055-0.296 1.408 0.128s0.296 1.055-0.128 1.408l-2.929 2.441c-1.182 0.985-2.14 1.783-2.985 2.327-0.881 0.566-1.738 0.924-2.726 0.924s-1.846-0.358-2.726-0.924c-0.845-0.544-1.803-1.342-2.985-2.327l-2.929-2.441c-0.424-0.354-0.482-0.984-0.128-1.408z"></path>
</symbol>
<symbol id="icon-phone" viewBox="0 0 32 32">
<path d="M22 20c-2 2-2 4-4 4s-4-2-6-4-4-4-4-6 2-2 4-4-4-8-6-8-6 6-6 6c0 4 4.109 12.109 8 16s12 8 16 8c0 0 6-4 6-6s-6-8-8-6z"></path>
</symbol>
<symbol id="icon-github" viewBox="0 0 32 32">
<path stroke-linejoin="round" stroke-linecap="round" stroke-miterlimit="4" stroke-width="0.48" d="M20.126 28.333c0.005-0.778 0.010-3.479 0.010-4.548 0-1.545-0.528-2.556-1.12-3.068 3.675-0.411 7.534-1.811 7.534-8.178 0-1.809-0.637-3.289-1.696-4.447 0.169-0.419 0.735-2.105-0.165-4.387 0 0-1.383-0.445-4.534 1.701-1.319-0.369-2.729-0.551-4.131-0.559-1.402 0.007-2.812 0.19-4.131 0.559-3.151-2.146-4.534-1.701-4.534-1.701-0.9 2.282-0.334 3.967-0.165 4.387-1.059 1.158-1.696 2.638-1.696 4.447 0 6.367 3.858 7.767 7.533 8.178-0.592 0.512-1.12 1.523-1.12 3.068 0 1.069 0.005 3.77 0.010 4.548M4.5 21.667c1.657 0.117 2.612 1.622 2.612 1.622 1.472 2.533 3.863 1.8 4.803 1.378"></path>
</symbol>
<symbol id="icon-link" viewBox="0 0 32 32">
<path d="M14.101 3.071c1.966-1.966 4.633-3.071 7.414-3.071 5.791 0 10.485 4.694 10.485 10.485 0 2.781-1.105 5.448-3.071 7.414l-4.101 4.101-2.828-2.828 4.101-4.101c1.216-1.216 1.899-2.866 1.899-4.586 0-3.582-2.904-6.485-6.485-6.485-1.72 0-3.37 0.683-4.586 1.899l-4.101 4.101-2.828-2.828 4.101-4.101z"></path>
<path d="M15.071 26.101l4.101-4.101 2.828 2.828-4.101 4.101c-1.966 1.966-4.633 3.071-7.414 3.071-5.791 0-10.485-4.694-10.485-10.485 0-2.781 1.105-5.448 3.071-7.414l4.101-4.101 2.828 2.828-4.101 4.101c-1.216 1.216-1.899 2.866-1.899 4.586 0 3.582 2.904 6.485 6.485 6.485 1.72 0 3.37-0.683 4.586-1.899z"></path>
<path d="M11.414 23.414l12-12-2.828-2.828-12 12 2.828 2.828z"></path>
</symbol>
<symbol id="icon-phone" viewBox="0 0 32 32">
<path d="M16 29.661c7.46 0 13.661-6.201 13.661-13.661 0-7.473-6.214-13.661-13.674-13.661-7.473 0-13.647 6.188-13.647 13.661 0 7.46 6.188 13.661 13.661 13.661zM12.504 19.335c-3.321-3.308-5.438-7.527-2.933-10.031 0.147-0.147 0.308-0.295 0.455-0.442 0.763-0.723 1.5-0.683 2.156 0.241l1.741 2.478c0.589 0.857 0.442 1.339-0.188 2.009l-0.549 0.603c-0.201 0.187-0.12 0.442-0.027 0.603 0.254 0.482 0.978 1.339 1.754 2.116 0.804 0.804 1.621 1.487 2.13 1.768 0.188 0.107 0.455 0.134 0.63-0.027l0.576-0.549c0.643-0.63 1.165-0.79 1.996-0.201 1.152 0.817 1.848 1.299 2.531 1.768 0.844 0.616 1.045 1.38 0.188 2.156-0.147 0.147-0.281 0.308-0.429 0.455-2.504 2.491-6.71 0.375-10.031-2.946z"></path>
</symbol>
<symbol id="icon-mail" viewBox="0 0 32 32">
<path d="M26.666 0h-21.332c-2.934 0-5.334 2.4-5.334 5.333v21.333c0 2.934 2.4 5.334 5.334 5.334h21.332c2.936 0 5.334-2.4 5.334-5.334v-21.333c0-2.934-2.398-5.333-5.334-5.333zM8 8h16c0.286 0 0.563 0.061 0.817 0.177l-8.817 10.286-8.817-10.287c0.254-0.116 0.531-0.177 0.817-0.177zM6 22v-12c0-0.042 0.002-0.084 0.004-0.125l5.864 6.842-5.8 5.8c-0.045-0.167-0.069-0.34-0.069-0.517zM24 24h-16c-0.177 0-0.35-0.024-0.517-0.069l5.691-5.691 2.826 3.297 2.826-3.297 5.691 5.691c-0.167 0.045-0.34 0.069-0.517 0.069zM26 22c0 0.177-0.024 0.35-0.069 0.517l-5.8-5.8 5.864-6.842c0.003 0.041 0.004 0.083 0.004 0.125v12z"></path>
</symbol>
<symbol id="icon-telegram" viewBox="0 0 32 32">
<path d="M16 0c-8.838 0-16 7.162-16 16s7.162 16 16 16 16-7.163 16-16-7.163-16-16-16zM23.863 10.969l-2.625 12.369c-0.181 0.881-0.712 1.087-1.45 0.681l-4-2.956-1.919 1.869c-0.225 0.219-0.4 0.4-0.8 0.4-0.519 0-0.431-0.194-0.606-0.688l-1.363-4.475-3.956-1.231c-0.856-0.262-0.862-0.85 0.194-1.269l15.412-5.95c0.7-0.319 1.381 0.169 1.113 1.25z"></path>
</symbol>
<symbol id="icon-github2" viewBox="0 0 32 32">
<path d="M16 0.395c-8.836 0-16 7.163-16 16 0 7.069 4.585 13.067 10.942 15.182 0.8 0.148 1.094-0.347 1.094-0.77 0-0.381-0.015-1.642-0.022-2.979-4.452 0.968-5.391-1.888-5.391-1.888-0.728-1.849-1.776-2.341-1.776-2.341-1.452-0.993 0.11-0.973 0.11-0.973 1.606 0.113 2.452 1.649 2.452 1.649 1.427 2.446 3.743 1.739 4.656 1.33 0.143-1.034 0.558-1.74 1.016-2.14-3.554-0.404-7.29-1.777-7.29-7.907 0-1.747 0.625-3.174 1.649-4.295-0.166-0.403-0.714-2.030 0.155-4.234 0 0 1.344-0.43 4.401 1.64 1.276-0.355 2.645-0.532 4.005-0.539 1.359 0.006 2.729 0.184 4.008 0.539 3.054-2.070 4.395-1.64 4.395-1.64 0.871 2.204 0.323 3.831 0.157 4.234 1.026 1.12 1.647 2.548 1.647 4.295 0 6.145-3.743 7.498-7.306 7.895 0.574 0.497 1.085 1.47 1.085 2.963 0 2.141-0.019 3.864-0.019 4.391 0 0.426 0.288 0.925 1.099 0.768 6.354-2.118 10.933-8.113 10.933-15.18 0-8.837-7.164-16-16-16z"></path>
</symbol>
<symbol id="icon-linkedin" viewBox="0 0 32 32">
<path d="M29 0h-26c-1.65 0-3 1.35-3 3v26c0 1.65 1.35 3 3 3h26c1.65 0 3-1.35 3-3v-26c0-1.65-1.35-3-3-3zM12 26h-4v-14h4v14zM10 10c-1.106 0-2-0.894-2-2s0.894-2 2-2c1.106 0 2 0.894 2 2s-0.894 2-2 2zM26 26h-4v-8c0-1.106-0.894-2-2-2s-2 0.894-2 2v8h-4v-14h4v2.481c0.825-1.131 2.087-2.481 3.5-2.481 2.488 0 4.5 2.238 4.5 5v9z"></path>
</symbol>
<symbol id="icon-dial" viewBox="0 0 32 32">
<path d="M11.333 9.333h1.333c0.368 0 0.667 0.298 0.667 0.667v1.333c0 0.368-0.298 0.667-0.667 0.667h-1.333c-0.368 0-0.667-0.298-0.667-0.667v-1.333c0-0.368 0.298-0.667 0.667-0.667zM15.333 9.333h1.333c0.368 0 0.667 0.298 0.667 0.667v1.333c0 0.368-0.298 0.667-0.667 0.667h-1.333c-0.368 0-0.667-0.298-0.667-0.667v-1.333c0-0.368 0.298-0.667 0.667-0.667zM11.333 13.333h1.333c0.368 0 0.667 0.298 0.667 0.667v1.333c0 0.368-0.298 0.667-0.667 0.667h-1.333c-0.368 0-0.667-0.298-0.667-0.667v-1.333c0-0.368 0.298-0.667 0.667-0.667zM11.333 17.333h1.333c0.368 0 0.667 0.298 0.667 0.667v1.333c0 0.368-0.298 0.667-0.667 0.667h-1.333c-0.368 0-0.667-0.298-0.667-0.667v-1.333c0-0.368 0.298-0.667 0.667-0.667zM15.333 13.333h1.333c0.368 0 0.667 0.298 0.667 0.667v1.333c0 0.368-0.298 0.667-0.667 0.667h-1.333c-0.368 0-0.667-0.298-0.667-0.667v-1.333c0-0.368 0.298-0.667 0.667-0.667zM15.333 17.333h1.333c0.368 0 0.667 0.298 0.667 0.667v1.333c0 0.368-0.298 0.667-0.667 0.667h-1.333c-0.368 0-0.667-0.298-0.667-0.667v-1.333c0-0.368 0.298-0.667 0.667-0.667zM19.333 9.333h1.333c0.368 0 0.667 0.298 0.667 0.667v1.333c0 0.368-0.298 0.667-0.667 0.667h-1.333c-0.368 0-0.667-0.298-0.667-0.667v-1.333c0-0.368 0.298-0.667 0.667-0.667zM19.333 13.333h1.333c0.368 0 0.667 0.298 0.667 0.667v1.333c0 0.368-0.298 0.667-0.667 0.667h-1.333c-0.368 0-0.667-0.298-0.667-0.667v-1.333c0-0.368 0.298-0.667 0.667-0.667zM19.333 17.333h1.333c0.368 0 0.667 0.298 0.667 0.667v1.333c0 0.368-0.298 0.667-0.667 0.667h-1.333c-0.368 0-0.667-0.298-0.667-0.667v-1.333c0-0.368 0.298-0.667 0.667-0.667zM15.333 21.333h1.333c0.368 0 0.667 0.298 0.667 0.667v1.333c0 0.368-0.298 0.667-0.667 0.667h-1.333c-0.368 0-0.667-0.298-0.667-0.667v-1.333c0-0.368 0.298-0.667 0.667-0.667z"></path>
</symbol>
<!-- ........... -->
<symbol id="icon-star" viewBox="0 0 32 32">
<path stroke-linejoin="miter" stroke-linecap="butt" stroke-miterlimit="4" stroke-width="2.4" d="M12.4 9.394l3.6-6.822 3.6 6.822c0.318 0.603 0.899 1.025 1.571 1.141l7.601 1.315-5.376 5.532c-0.475 0.489-0.697 1.171-0.6 1.846l1.098 7.635-6.922-3.404c-0.612-0.301-1.329-0.301-1.941 0l-6.922 3.404 1.098-7.635c0.097-0.675-0.125-1.357-0.6-1.846l-5.376-5.532 7.601-1.315c0.672-0.116 1.252-0.538 1.571-1.141zM29.035 11.579v0zM7.767 27.031c0 0 0 0 0 0h-0z"></path>
</symbol>
<symbol id="icon-checkmark" viewBox="0 0 32 32">
<path d="M27 4l-15 15-7-7-5 5 12 12 20-20z"></path>
</symbol>
<symbol id="icon-error" viewBox="0 0 32 32">
<path d="M15.457 26.783c-1.929-1.929-3.893-4.052-5.376-6.277-0.533-0.799-1.009-1.62-1.402-2.458h1.716c0.283 0.534 0.606 1.070 0.963 1.606 1.264 1.896 2.921 3.745 4.641 5.495 1.72-1.75 3.377-3.599 4.641-5.495 0.358-0.536 0.681-1.072 0.963-1.606h1.716c-0.392 0.838-0.869 1.659-1.402 2.458-1.483 2.225-3.447 4.348-5.376 6.277l-0.543 0.543-0.543-0.543zM24.448 13.44c0 0.602-0.063 1.2-0.18 1.792h-1.571c0.141-0.602 0.215-1.2 0.215-1.792 0-4.056-2.856-6.912-6.912-6.912s-6.912 2.856-6.912 6.912c0 0.592 0.075 1.19 0.215 1.792h-1.571c-0.117-0.592-0.18-1.19-0.18-1.792 0-4.904 3.544-8.448 8.448-8.448s8.448 3.544 8.448 8.448zM18.688 13.44c0 0.688-0.259 1.316-0.684 1.792h-4.007c-0.426-0.476-0.684-1.104-0.684-1.792 0-1.485 1.203-2.688 2.688-2.688s2.688 1.203 2.688 2.688zM14.848 13.44c0-0.636 0.516-1.152 1.152-1.152s1.152 0.516 1.152 1.152c0 0.636-0.516 1.152-1.152 1.152s-1.152-0.516-1.152-1.152zM2.56 17.408h26.88v-1.536h-26.88v1.536z"></path>
</symbol>
<symbol id="icon-arrow-up" viewBox="0 0 32 32">
<path d="M24.391 20.386c0.521-0.521 0.521-1.365 0-1.886l-6.523-6.517c-1.042-1.041-2.729-1.040-3.77 0.001l-6.52 6.52c-0.521 0.521-0.521 1.365 0 1.886s1.365 0.521 1.886 0l5.581-5.581c0.521-0.521 1.365-0.521 1.886 0l5.576 5.576c0.521 0.521 1.365 0.521 1.886 0z"></path>
</symbol>
<symbol id="icon-arrow-down" viewBox="0 0 32 32">
<path d="M7.609 12.948c-0.521 0.521-0.521 1.365 0 1.886l6.523 6.517c1.042 1.041 2.729 1.040 3.77-0.001l6.52-6.521c0.521-0.521 0.521-1.365 0-1.886s-1.365-0.521-1.886 0l-5.581 5.581c-0.521 0.521-1.365 0.521-1.886 0l-5.576-5.576c-0.521-0.521-1.365-0.521-1.886 0z"></path>
</symbol>
</defs>
</svg>